<?xml version="1.0" encoding="UTF-8"?>
<!-- Generator: Adobe Illustrator 22.1.0, SVG Export Plug-In . SVG Version: 6.00 Build 0)  -->
<svg version="1.1" id="Layer_1" xmlns="http://www.w3.org/2000/svg" xmlns:xlink="http://www.w3.org/1999/xlink" x="0px" y="0px" viewBox="0 0 929.8 842.2" style="enable-background:new 0 0 929.8 842.2;" xml:space="preserve">
<style type="text/css">
	.st0{fill:#4285F4;}
	.st1{fill:#34A853;}
	.st2{fill:#EA4335;}
	.st3{fill:#FBBC05;}
</style>
<g>
	<g>
		<path id="XMLID_36_" class="st0" d="M212.1,3.5c68.8-11.7,142.2,6.2,197.3,49.1c55.6,42.4,92.3,108.6,98.3,178.4    c6.8,69.5-16.8,141.2-63.7,193c-49.1,55.6-123.5,87.6-197.7,84.6c-73.8-1.8-145.6-38.1-191.2-96C6.9,352.8-11.2,270.4,6.8,195.8    C28.6,98.3,113.3,18.9,212.1,3.5z"/>
	</g>
	<g>
		<path id="XMLID_35_" class="st1" d="M847.6,171.1c36.9-13.2,80.1,16,81.9,55c3.9,35.4-27.4,69.2-63,67.8    c-35.5,1-66.4-32.8-62.4-68.1C805.7,200.9,823.9,178.5,847.6,171.1z"/>
	</g>
	<g>
		<path id="XMLID_33_" class="st2" d="M642.9,256.2c35.9-10.1,76.4-3.5,106.7,18.4c34.9,24.3,55.7,67.3,52.8,109.8    c-1.9,39.6-24.2,77.3-57.6,98.6c-46.4,30.5-112.7,25-152.9-13.5c-34.8-31.4-49.1-83.1-35.4-127.9    C568,300.8,601.9,267.4,642.9,256.2z"/>
	</g>
	<g>
		<path id="XMLID_32_" class="st3" d="M648.3,551.1c79-18.2,164.2,41.6,174,122c14.3,79.3-48.5,161.2-128.8,167.8    c-76.9,10.8-154.1-50-162-127.2C520.3,639.8,574.8,564.2,648.3,551.1z"/>
	</g>
</g>
</svg>